<?xml version="1.0" standalone="no"?>
<!DOCTYPE svg PUBLIC "-//W3C//DTD SVG 20010904//EN"
 "http://www.w3.org/TR/2001/REC-SVG-20010904/DTD/svg10.dtd">
<svg version="1.0" xmlns="http://www.w3.org/2000/svg"
 width="325.000000pt" height="398.000000pt" viewBox="0 0 325.000000 398.000000"
 preserveAspectRatio="xMidYMid meet">
<metadata>
Created by potrace 1.16, written by Peter Selinger 2001-2019
</metadata>
<g transform="translate(0.000000,398.000000) scale(0.100000,-0.100000)"
fill="#000000" stroke="none">
<path d="M1749 3675 c-81 -29 -183 -118 -212 -183 -6 -15 -32 -59 -57 -98 -63
-97 -86 -225 -50 -269 6 -8 10 -19 9 -27 -4 -32 2 -59 12 -53 6 4 9 1 8 -6 -4
-21 11 -59 23 -59 6 0 8 -10 4 -26 -5 -17 -3 -23 4 -19 5 3 11 -2 12 -12 2
-33 3 -38 11 -50 5 -7 6 -17 3 -22 -4 -5 1 -8 11 -7 9 2 20 11 23 21 6 17 7
17 12 -3 4 -12 2 -20 -3 -16 -5 3 -9 -2 -9 -10 0 -8 5 -18 11 -21 6 -4 8 -13
5 -21 -3 -8 -1 -14 5 -14 6 0 8 -4 5 -8 -2 -4 11 -32 30 -62 18 -30 34 -59 34
-65 0 -5 -10 5 -21 22 -17 27 -39 37 -39 17 0 -3 5 -2 12 2 7 4 8 3 4 -4 -4
-7 -11 -12 -16 -12 -4 0 -37 50 -73 111 -57 96 -65 106 -62 74 2 -20 13 -66
25 -103 12 -37 23 -77 25 -90 1 -12 11 -32 21 -43 11 -12 18 -23 17 -25 -6 -9
10 -33 18 -28 5 3 9 -11 9 -30 0 -20 4 -36 8 -36 14 0 32 -115 26 -164 -6 -43
-52 -184 -53 -161 -1 6 8 39 19 73 11 35 20 84 20 109 0 61 -26 160 -54 203
-12 19 -25 43 -29 53 -3 9 -11 17 -16 17 -5 0 -17 17 -27 38 -9 20 -19 31 -22
24 -2 -6 -8 -10 -13 -6 -5 3 -10 -14 -11 -38 -1 -24 -2 -58 -3 -76 -3 -43 -24
-139 -40 -177 -18 -42 -26 -105 -14 -105 6 0 8 -4 4 -9 -3 -5 -1 -12 5 -16 6
-4 9 9 7 37 -2 24 0 54 4 68 5 17 8 3 8 -45 1 -49 4 -66 11 -55 14 22 12 4 -4
-35 -16 -38 -27 -47 -19 -15 9 36 -5 21 -17 -17 -7 -21 -18 -42 -25 -48 -13
-11 -14 -12 -22 -45 -3 -11 -9 -20 -14 -20 -12 0 -12 -57 0 -64 5 -4 12 0 14
6 3 7 3 -10 0 -38 -5 -42 -3 -51 11 -51 9 0 17 9 18 21 2 37 3 41 17 83 8 24
17 40 22 38 4 -3 10 12 14 33 3 20 11 44 16 52 9 12 9 11 4 -5 -4 -11 -9 -55
-12 -98 -3 -43 -9 -73 -13 -67 -9 14 -20 -11 -20 -46 0 -24 14 -32 25 -14 4 6
10 8 15 5 9 -6 20 18 21 48 0 21 1 21 9 2 8 -18 9 -18 9 5 1 14 12 47 26 74
14 27 25 57 25 67 0 10 5 21 11 25 8 5 9 -6 4 -37 -5 -24 -8 -51 -8 -59 1 -8
-5 -37 -13 -64 -17 -61 -17 -61 0 -47 11 9 15 9 19 -1 3 -8 9 -2 16 15 6 15
13 27 16 27 4 0 3 -6 -1 -12 -5 -7 15 6 43 29 34 29 59 42 76 41 18 -2 23 -7
19 -18 -3 -9 4 -6 20 8 16 15 28 19 32 13 4 -7 21 -3 46 10 l40 21 41 -37 c22
-20 43 -34 45 -32 3 3 -9 40 -25 83 -35 90 -39 124 -14 124 50 0 360 113 415
152 15 11 34 15 45 12 15 -6 16 -4 6 7 -20 21 -16 25 23 25 21 0 32 -2 25 -4
-6 -2 -11 -8 -11 -13 0 -17 58 -9 97 12 l38 22 -33 -32 c-73 -72 -106 -183
-105 -356 1 -66 8 -155 17 -198 14 -70 14 -86 1 -149 -8 -38 -15 -94 -15 -124
0 -30 -4 -54 -9 -54 -15 0 -33 -143 -38 -310 l-6 -166 80 -36 c46 -21 96 -52
118 -74 35 -35 36 -36 17 -8 -12 18 -36 45 -54 61 -41 37 -42 40 -43 143 -1
49 -7 95 -14 109 -8 15 -14 63 -15 125 0 56 -5 104 -11 108 -7 5 -7 8 0 8 6 0
11 83 12 224 2 164 7 231 16 250 8 14 17 23 20 20 3 -3 11 12 18 35 7 23 15
41 18 41 3 0 6 12 7 28 1 15 3 65 4 112 2 47 2 111 0 143 -2 44 1 61 15 77 25
28 168 110 191 110 14 0 11 5 -12 16 -23 11 -40 35 -70 99 -22 47 -37 90 -33
97 4 7 1 18 -6 25 -13 12 -16 -3 -16 -81 0 -10 -2 -16 -5 -14 -9 9 -12 148 -3
149 5 1 14 2 20 3 7 0 13 14 15 31 2 16 10 35 19 41 15 11 14 16 -5 53 -11 23
-25 41 -30 41 -6 0 -10 7 -10 15 0 8 -4 15 -10 15 -5 0 -10 -6 -10 -14 0 -8
-5 -18 -10 -21 -7 -4 -8 3 -4 22 4 18 3 25 -3 18 -16 -16 -33 -95 -32 -145 2
-69 0 -82 -12 -75 -6 4 -14 17 -19 29 -9 21 -9 21 -9 -2 -1 -13 -5 -21 -11
-17 -5 3 -17 -7 -27 -22 -10 -15 -20 -30 -24 -33 -4 -3 -16 -21 -28 -40 -11
-19 -21 -31 -21 -26 0 9 40 77 50 86 15 13 47 79 53 110 7 32 6 33 -8 15 -11
-15 -10 -5 5 33 11 29 20 69 20 90 0 46 -31 130 -71 191 l-31 46 42 -45 41
-45 -15 38 c-18 46 -12 48 14 5 11 -18 20 -28 21 -23 0 6 2 26 5 46 4 30 -3
44 -43 96 -31 39 -62 67 -86 77 -21 9 -36 20 -33 25 8 12 -22 23 -37 14 -7 -3
-9 -2 -4 2 10 12 -23 45 -45 45 -11 0 -16 4 -13 10 3 5 -19 22 -49 37 -31 15
-56 31 -56 35 0 12 13 10 54 -7 20 -9 41 -13 47 -9 11 6 -47 54 -66 54 -7 0
-20 10 -31 21 -34 39 -76 49 -196 48 -67 0 -128 -6 -149 -14z m307 -184 c12
-9 32 -23 44 -31 88 -58 184 -260 215 -453 19 -115 19 -158 1 -227 -8 -30 -13
-56 -12 -57 1 -2 19 25 39 59 20 35 37 59 37 55 0 -16 -33 -73 -65 -112 -18
-22 -53 -81 -78 -131 -62 -124 -128 -177 -203 -162 -37 7 -74 128 -40 128 28
0 23 25 -8 40 -37 18 -50 56 -16 47 26 -7 153 59 147 77 -2 6 -35 14 -73 18
-104 10 -130 20 -126 49 1 13 8 29 15 34 12 10 17 37 6 33 -3 -2 -18 11 -32
27 -23 28 -25 37 -20 95 6 72 -13 135 -44 147 -10 4 -33 17 -52 30 -19 13 -46
23 -62 23 -15 0 -30 4 -33 8 -13 21 -17 140 -7 179 10 35 17 43 46 53 19 6 35
16 35 22 0 19 32 48 52 48 11 0 17 4 14 9 -3 5 10 12 29 15 19 4 46 13 61 21
24 12 32 12 68 -7 23 -11 51 -28 62 -37z"/>
<path d="M260 1920 c0 -5 9 -14 21 -20 38 -21 12 -21 -62 -1 -40 12 -75 19
-77 16 -2 -2 30 -14 73 -26 55 -16 72 -25 61 -31 -18 -10 -51 -76 -43 -84 3
-3 -2 -26 -10 -51 -15 -43 -15 -45 9 -71 14 -15 31 -42 38 -60 17 -44 23 -46
64 -21 20 11 36 16 36 11 0 -6 -4 -14 -10 -17 -6 -3 -10 -15 -10 -26 0 -14 -9
-21 -30 -26 -17 -3 -35 -13 -40 -23 -10 -19 0 -31 53 -63 15 -10 27 -26 27
-38 0 -14 12 -25 37 -36 21 -8 48 -24 62 -34 13 -10 38 -19 56 -19 18 0 39 -8
47 -17 38 -43 99 -232 125 -388 13 -83 109 -242 207 -342 38 -40 77 -73 87
-73 10 0 21 -5 25 -11 4 -8 9 -7 15 2 6 10 9 10 9 2 0 -7 -6 -16 -12 -20 -7
-4 -22 -19 -33 -33 l-20 -25 28 24 c15 14 27 20 27 14 0 -5 -2 -12 -5 -15 -3
-3 -7 -56 -9 -118 -3 -96 -6 -114 -20 -116 -9 -1 -16 2 -16 7 0 5 5 9 10 9 6
0 10 5 10 10 0 6 -8 5 -20 -2 l-21 -13 21 -17 c12 -9 20 -20 18 -25 -2 -4 10
-14 27 -23 16 -8 35 -21 43 -28 7 -7 17 -10 22 -7 5 3 11 -1 13 -7 4 -10 6
-10 6 0 1 6 6 12 12 12 6 0 8 -7 5 -16 -3 -8 -2 -13 3 -9 5 3 12 -1 14 -7 3
-7 6 -4 7 7 1 18 2 18 11 -3 5 -13 13 -20 19 -17 5 3 10 2 10 -3 0 -5 30 -19
68 -30 90 -28 313 -30 324 -4 6 15 7 15 7 0 1 -15 10 -18 51 -18 30 0 50 4 50
11 0 8 4 8 13 0 8 -6 50 -10 105 -8 88 2 118 10 70 20 -18 4 -16 5 7 5 17 1
48 5 70 11 34 8 28 9 -40 6 -44 -1 -60 0 -35 2 57 5 72 19 27 25 -20 2 -33 0
-31 -4 3 -4 -4 -8 -15 -8 -12 0 -21 7 -21 15 0 18 -8 19 -41 1 -22 -11 -29
-11 -44 0 -25 19 -65 18 -65 -1 0 -9 -9 -15 -25 -15 -16 0 -25 6 -25 16 0 9
-5 12 -12 8 -7 -5 -8 -3 -4 5 5 7 15 10 23 7 8 -3 12 -2 8 3 -7 12 24 43 39
38 6 -3 10 -10 8 -17 -2 -9 7 -11 33 -6 19 4 41 4 47 0 16 -10 68 -11 68 -1 0
5 -5 18 -11 30 -8 17 -5 16 13 -5 13 -16 28 -28 33 -28 5 0 4 5 -3 12 -7 7
-12 16 -12 22 0 6 5 5 12 -2 14 -14 63 -15 93 -2 16 6 17 9 5 13 -55 19 -158
28 -166 15 -3 -5 -9 -6 -14 -3 -5 3 -19 1 -30 -5 -12 -6 -29 -9 -38 -7 -13 3
-10 7 11 15 32 14 31 35 -1 40 -24 4 -55 -21 -44 -34 4 -5 -3 0 -15 10 -13 11
-23 22 -23 25 0 13 112 12 128 -1 12 -10 14 -10 8 0 -5 8 0 12 15 12 12 0 20
2 17 5 -6 7 -35 8 -140 5 l-88 -2 0 -47 c0 -27 -4 -41 -8 -33 -5 7 -16 10 -25
6 -13 -4 -17 -1 -17 15 0 23 25 29 33 9 3 -7 6 -3 6 8 1 16 -7 24 -26 29 -26
7 -26 8 -8 15 18 8 17 9 -6 9 -37 1 -208 55 -255 80 -21 12 -44 21 -51 21 -7
0 -13 5 -13 12 0 9 -3 9 -12 0 -10 -10 -10 -15 -1 -20 8 -5 9 -13 3 -22 -8
-13 -10 -12 -10 2 0 9 -5 20 -12 24 -8 5 -9 2 -5 -9 11 -29 -4 -77 -23 -77
-20 0 -50 91 -50 152 0 30 4 36 25 40 21 5 25 1 31 -28 6 -34 19 -44 27 -21 2
6 3 -1 1 -18 -3 -22 -2 -27 7 -18 9 9 17 8 35 -4 13 -8 28 -12 33 -9 5 4 12 2
16 -4 3 -5 11 -10 16 -10 6 0 -4 12 -22 27 -30 25 -89 138 -89 169 0 8 7 14
15 14 8 0 15 6 15 13 0 8 3 7 10 -3 17 -27 22 -2 5 30 -10 19 -15 51 -14 84 2
41 -3 62 -20 90 -13 20 -20 43 -17 51 6 17 46 21 46 5 0 -5 16 -10 35 -10 28
0 35 4 35 19 0 10 12 50 26 87 l26 69 -22 91 c-25 102 -24 120 19 184 24 37
30 58 33 118 l4 73 -30 -5 c-31 -5 -49 -27 -53 -63 -2 -19 -25 -96 -40 -133
-3 -8 -8 -24 -10 -35 -17 -99 -71 -252 -113 -325 -11 -19 -20 -49 -20 -66 0
-17 -12 -55 -28 -85 -26 -52 -29 -54 -69 -55 -28 -1 -44 4 -47 13 -3 8 -10 11
-16 8 -5 -3 -10 -2 -10 4 0 9 -17 31 -69 89 -42 48 -131 268 -167 412 -2 8
-11 36 -21 62 -10 26 -15 50 -12 53 4 3 25 1 48 -4 45 -10 45 -10 24 46 -3 6
4 13 13 15 16 3 13 8 -14 38 -25 27 -34 32 -41 21 -12 -19 -51 3 -51 29 0 11
-5 20 -11 20 -8 0 -7 5 2 16 11 13 4 23 -44 72 -48 48 -57 53 -57 35 0 -31
-14 -36 -49 -16 -31 18 -40 33 -21 33 6 0 10 7 10 15 0 8 7 15 15 15 27 0 -2
38 -120 164 -105 111 -125 128 -125 106z"/>
<path d="M1138 1573 c-27 -28 -71 -89 -129 -175 -35 -52 -57 -60 -77 -28 -11
18 -9 25 12 53 13 18 31 47 40 65 15 29 15 34 1 48 -8 8 -15 11 -15 6 0 -5
-26 1 -57 13 -32 13 -76 27 -98 31 -35 6 -38 5 -28 -8 22 -26 113 -70 148 -71
l34 -1 -30 -55 c-16 -31 -29 -63 -29 -72 0 -23 24 -41 68 -49 20 -4 46 -11 57
-15 19 -8 19 -7 -2 16 -23 25 -22 69 1 69 6 0 22 23 35 50 13 28 35 59 50 69
28 20 68 81 53 81 -4 0 -20 -12 -34 -27z"/>
<path d="M1602 1430 c-7 -12 -18 -16 -32 -13 -29 8 -25 -4 19 -53 22 -23 53
-69 69 -101 17 -32 69 -112 117 -178 119 -162 122 -167 104 -164 -15 3 -69
-21 -69 -30 0 -4 -11 -18 -25 -33 -22 -24 -23 -28 -9 -42 9 -9 24 -21 35 -27
11 -5 18 -13 16 -17 -3 -4 17 -23 44 -42 27 -19 51 -43 54 -52 4 -9 16 -20 28
-24 12 -4 24 -9 27 -13 3 -3 30 -25 61 -48 31 -23 62 -47 70 -55 24 -24 134
-95 180 -117 32 -16 54 -20 80 -16 22 4 40 2 44 -4 10 -18 65 -12 101 10 42
25 42 34 4 48 -17 5 -34 19 -38 30 -4 10 -60 70 -124 132 -65 62 -118 117
-118 123 0 5 -30 40 -67 76 -38 37 -80 79 -94 96 -15 16 -43 45 -63 64 -20 19
-36 40 -36 48 0 7 -4 10 -10 7 -5 -3 -10 1 -10 9 0 9 -5 16 -11 16 -6 0 -20
11 -31 25 -11 14 -24 25 -31 25 -6 0 -2 -7 9 -15 14 -11 15 -14 2 -9 -10 3
-17 -1 -20 -12 -2 -13 -19 0 -64 48 -73 78 -110 142 -131 223 -16 63 -26 80
-53 95 -11 6 -19 3 -28 -10z"/>
</g>
</svg>
